<mxfile host="app.diagrams.net" modified="2023-11-18T21:34:24.217Z" agent="Mozilla/5.0 (Windows NT 10.0; Win64; x64) AppleWebKit/537.36 (KHTML, like Gecko) Chrome/119.0.0.0 Safari/537.36 Edg/119.0.0.0" etag="N8A2SuM0uak81asCJOL4" version="22.1.3" type="device">
  <diagram name="Page-1" id="YIXvHVvUl2gwjPfW_eWD">
    <mxGraphModel dx="832" dy="461" grid="1" gridSize="10" guides="1" tooltips="1" connect="1" arrows="1" fold="1" page="1" pageScale="1" pageWidth="850" pageHeight="1100" math="0" shadow="0">
      <root>
        <mxCell id="0" />
        <mxCell id="1" parent="0" />
        <mxCell id="81_zAxHCgOmkTD9Guv-8-2" value="Region" style="points=[[0,0],[0.25,0],[0.5,0],[0.75,0],[1,0],[1,0.25],[1,0.5],[1,0.75],[1,1],[0.75,1],[0.5,1],[0.25,1],[0,1],[0,0.75],[0,0.5],[0,0.25]];outlineConnect=0;gradientColor=none;html=1;whiteSpace=wrap;fontSize=12;fontStyle=0;container=1;pointerEvents=0;collapsible=0;recursiveResize=0;shape=mxgraph.aws4.group;grIcon=mxgraph.aws4.group_region;strokeColor=#00A4A6;fillColor=none;verticalAlign=top;align=left;spacingLeft=30;fontColor=#147EBA;dashed=1;strokeWidth=3;" vertex="1" parent="1">
          <mxGeometry x="260" y="30" width="550" height="310" as="geometry" />
        </mxCell>
        <mxCell id="81_zAxHCgOmkTD9Guv-8-3" value="VPC" style="sketch=0;outlineConnect=0;gradientColor=none;html=1;whiteSpace=wrap;fontSize=12;fontStyle=0;shape=mxgraph.aws4.group;grIcon=mxgraph.aws4.group_vpc;strokeColor=#879196;fillColor=none;verticalAlign=top;align=left;spacingLeft=30;fontColor=#879196;dashed=0;" vertex="1" parent="81_zAxHCgOmkTD9Guv-8-2">
          <mxGeometry x="115" y="60" width="400" height="140" as="geometry" />
        </mxCell>
        <mxCell id="81_zAxHCgOmkTD9Guv-8-8" value="" style="outlineConnect=0;dashed=0;verticalLabelPosition=bottom;verticalAlign=top;align=center;html=1;shape=mxgraph.aws3.ec2;fillColor=#F58534;gradientColor=none;" vertex="1" parent="81_zAxHCgOmkTD9Guv-8-2">
          <mxGeometry x="270" y="89.5" width="60" height="60" as="geometry" />
        </mxCell>
        <mxCell id="81_zAxHCgOmkTD9Guv-8-12" value="" style="sketch=0;points=[[0,0,0],[0.25,0,0],[0.5,0,0],[0.75,0,0],[1,0,0],[0,1,0],[0.25,1,0],[0.5,1,0],[0.75,1,0],[1,1,0],[0,0.25,0],[0,0.5,0],[0,0.75,0],[1,0.25,0],[1,0.5,0],[1,0.75,0]];outlineConnect=0;fontColor=#232F3E;fillColor=#7AA116;strokeColor=#ffffff;dashed=0;verticalLabelPosition=bottom;verticalAlign=top;align=center;html=1;fontSize=12;fontStyle=0;aspect=fixed;shape=mxgraph.aws4.resourceIcon;resIcon=mxgraph.aws4.s3;" vertex="1" parent="81_zAxHCgOmkTD9Guv-8-2">
          <mxGeometry x="270" y="215.06" width="45" height="45" as="geometry" />
        </mxCell>
        <mxCell id="81_zAxHCgOmkTD9Guv-8-13" value="" style="outlineConnect=0;dashed=0;verticalLabelPosition=bottom;verticalAlign=top;align=center;html=1;shape=mxgraph.aws3.internet_gateway;fillColor=#F58536;gradientColor=none;" vertex="1" parent="81_zAxHCgOmkTD9Guv-8-2">
          <mxGeometry x="-20" y="86.5" width="50" height="63" as="geometry" />
        </mxCell>
        <mxCell id="81_zAxHCgOmkTD9Guv-8-14" value="Route table" style="sketch=0;outlineConnect=0;fontColor=#232F3E;gradientColor=none;strokeColor=#232F3E;fillColor=#ffffff;dashed=0;verticalLabelPosition=bottom;verticalAlign=top;align=center;html=1;fontSize=12;fontStyle=0;aspect=fixed;shape=mxgraph.aws4.resourceIcon;resIcon=mxgraph.aws4.route_table;" vertex="1" parent="81_zAxHCgOmkTD9Guv-8-2">
          <mxGeometry x="162" y="96.5" width="43" height="43" as="geometry" />
        </mxCell>
        <mxCell id="81_zAxHCgOmkTD9Guv-8-39" value="" style="edgeStyle=elbowEdgeStyle;elbow=horizontal;endArrow=classic;html=1;curved=0;rounded=0;endSize=8;startSize=8;" edge="1" parent="81_zAxHCgOmkTD9Guv-8-2">
          <mxGeometry width="50" height="50" relative="1" as="geometry">
            <mxPoint x="280" y="135.25" as="sourcePoint" />
            <mxPoint x="270" y="234.75" as="targetPoint" />
            <Array as="points">
              <mxPoint x="230" y="172.25" />
            </Array>
          </mxGeometry>
        </mxCell>
        <mxCell id="81_zAxHCgOmkTD9Guv-8-52" value="" style="line;strokeWidth=2;direction=south;html=1;rotation=-90;" vertex="1" parent="81_zAxHCgOmkTD9Guv-8-2">
          <mxGeometry x="94" y="51.44" width="10" height="136.12" as="geometry" />
        </mxCell>
        <mxCell id="81_zAxHCgOmkTD9Guv-8-53" value="EC2" style="text;html=1;align=center;verticalAlign=middle;resizable=0;points=[];autosize=1;strokeColor=none;fillColor=none;" vertex="1" parent="81_zAxHCgOmkTD9Guv-8-2">
          <mxGeometry x="315" y="109.5" width="50" height="30" as="geometry" />
        </mxCell>
        <mxCell id="81_zAxHCgOmkTD9Guv-8-54" value="S3" style="text;html=1;align=center;verticalAlign=middle;resizable=0;points=[];autosize=1;strokeColor=none;fillColor=none;" vertex="1" parent="81_zAxHCgOmkTD9Guv-8-2">
          <mxGeometry x="295" y="240" width="40" height="30" as="geometry" />
        </mxCell>
        <mxCell id="81_zAxHCgOmkTD9Guv-8-55" value="IGW" style="text;html=1;align=center;verticalAlign=middle;resizable=0;points=[];autosize=1;strokeColor=none;fillColor=none;" vertex="1" parent="81_zAxHCgOmkTD9Guv-8-2">
          <mxGeometry x="-20" y="170" width="50" height="30" as="geometry" />
        </mxCell>
        <mxCell id="81_zAxHCgOmkTD9Guv-8-56" value="" style="line;strokeWidth=2;html=1;" vertex="1" parent="81_zAxHCgOmkTD9Guv-8-2">
          <mxGeometry x="200" y="63" width="70" height="110" as="geometry" />
        </mxCell>
        <mxCell id="81_zAxHCgOmkTD9Guv-8-15" value="Availability zone" style="sketch=0;outlineConnect=0;gradientColor=none;html=1;whiteSpace=wrap;fontSize=12;fontStyle=0;shape=mxgraph.aws4.group;grIcon=mxgraph.aws4.group_availability_zone;strokeColor=#545B64;fillColor=none;verticalAlign=top;align=left;spacingLeft=30;fontColor=#545B64;dashed=1;" vertex="1" parent="81_zAxHCgOmkTD9Guv-8-2">
          <mxGeometry x="215" y="70" width="275" height="93" as="geometry" />
        </mxCell>
        <mxCell id="81_zAxHCgOmkTD9Guv-8-6" value="" style="verticalLabelPosition=bottom;html=1;verticalAlign=top;align=center;strokeColor=none;fillColor=#00BEF2;shape=mxgraph.azure.computer;pointerEvents=1;" vertex="1" parent="1">
          <mxGeometry x="90" y="130" width="50" height="45" as="geometry" />
        </mxCell>
        <mxCell id="81_zAxHCgOmkTD9Guv-8-29" value="" style="edgeStyle=none;orthogonalLoop=1;jettySize=auto;html=1;rounded=0;" edge="1" parent="1">
          <mxGeometry width="100" relative="1" as="geometry">
            <mxPoint x="140" y="152" as="sourcePoint" />
            <mxPoint x="240" y="152" as="targetPoint" />
            <Array as="points" />
          </mxGeometry>
        </mxCell>
      </root>
    </mxGraphModel>
  </diagram>
</mxfile>
